<svg xmlns="http://www.w3.org/2000/svg" fill="none" viewBox="0 0 16 16" id="Hands-Clapping-Duotone--Streamline-Phosphor" height="16" width="16">
  <desc>
    Hands Clapping Duotone Streamline Icon: https://streamlinehq.com
  </desc>
  <g id="hands-clapping-duotone">
    <path id="Vector" fill="#c4c4c3" d="M12.102025 11.65763125c0.1687625 -1.0069 -0.0187375 -2.0411125 -0.5303 -2.92461875l-1.2369625 -2.14325625c-0.1473375 -0.24236875 -0.38241875 -0.41863125 -0.6563875 -0.4921 -0.27396875 -0.07346875 -0.5657 -0.03850625 -0.8145625 0.09761875 -0.2488 0.13613125 -0.43556875 0.36295 -0.52148125 0.63330625 -0.08585 0.27029375 -0.0642375 0.56330625 0.0604375 0.81810625l-1.46230625 -2.5265875c-0.0709125 -0.12813125 -0.166625 -0.24084375 -0.281625 -0.3315625 -0.1149375 -0.0907125 -0.24684375 -0.15761875 -0.38793125 -0.19679375 -0.1410875 -0.039175 -0.2885875 -0.04984375 -0.4338625 -0.031375 -0.145275 0.0184625 -0.28540625 0.06569375 -0.412225 0.138925 -0.1268125 0.07323125 -0.2377625 0.171 -0.32636875 0.28759375 -0.0886 0.11659375 -0.1530875 0.24966875 -0.18968125 0.39146875 -0.0366 0.1417875 -0.044575 0.28945625 -0.0234625 0.43436875 0.02111875 0.14490625 0.0708875 0.28415625 0.146425 0.40961875l-0.35088125 -0.61235625 -0.7783125 -1.3471875c-0.07236875 -0.12536875 -0.11934375 -0.26376875 -0.13823125 -0.4072875 -0.01889375 -0.143525 -0.009325 -0.28935625 0.02815 -0.42918125 0.03746875 -0.139825 0.10211875 -0.27090625 0.19025 -0.38574375 0.088125 -0.11484375 0.1980125 -0.21120625 0.323375 -0.283575 0.12536875 -0.072375 0.26376875 -0.11935 0.4072875 -0.1382375 0.143525 -0.0188875 0.2893625 -0.009325 0.42918125 0.02814375 0.13983125 0.037475 0.27090625 0.102125 0.38574375 0.19025 0.11484375 0.08813125 0.21120625 0.19801875 0.28358125 0.3233875l0.350275 0.61235625c-0.0755625 -0.1254625 -0.12531875 -0.2647125 -0.14643125 -0.40961875 -0.0211125 -0.1449125 -0.01314375 -0.29258125 0.0234625 -0.43436875 0.03656875 -0.1418 0.10105 -0.274875 0.18965625 -0.39146875s0.19956875 -0.2143625 0.3263875 -0.28759375c0.12681875 -0.07323125 0.2669875 -0.1204625 0.4122375 -0.138925 0.14525 -0.01846875 0.29276875 -0.0078 0.43385625 0.031375 0.1410875 0.039175 0.2729875 0.10608125 0.38793125 0.19679375 0.115 0.09071875 0.2107125 0.20343125 0.28161875 0.3315625l1.48374375 2.5719c-0.14616875 -0.25335625 -0.185725 -0.55439375 -0.10991875 -0.8369s0.26068125 -0.5233375 0.514075 -0.6695c0.2533375 -0.14616875 0.55436875 -0.1857 0.8369125 -0.10990625 0.28248125 0.07579375 0.52331875 0.26070625 0.6694875 0.5140625l1.2926875 2.23939375c0.48015 0.83121875 0.6758625 1.7964125 0.55749375 2.749 -0.11836875 0.95258125 -0.5443875 1.8405 -1.213325 2.5289125Z" stroke-width="0.0625"></path>
    <path id="Vector_2" fill="#000000" d="M9.7273 1.62965625V0.6498875c0 -0.129925 0.051625 -0.25453125 0.143475 -0.3464 0.09185625 -0.091875 0.21646875 -0.1434875 0.3464125 -0.1434875s0.25455625 0.0516125 0.3464125 0.1434875c0.09185 0.09186875 0.143475 0.216475 0.143475 0.3464v0.97976875c0 0.129925 -0.051625 0.2545375 -0.143475 0.34640625 -0.09185625 0.09186875 -0.21646875 0.14348125 -0.3464125 0.14348125s-0.25455625 -0.0516125 -0.3464125 -0.14348125c-0.09185 -0.09186875 -0.143475 -0.21648125 -0.143475 -0.34640625Zm2.1971375 1.0410125c0.07679375 0.047175 0.16521875 0.07198125 0.25535625 0.07164375 0.084075 0.0001375 0.16674375 -0.02136875 0.24010625 -0.06245 0.0733625 -0.04106875 0.1349 -0.10033125 0.17874375 -0.17208125l0.4898875 -0.8028c0.0335 -0.05500625 0.05585 -0.11606875 0.06570625 -0.17970625 0.00991875 -0.0636375 0.00716875 -0.12859375 -0.00801875 -0.19116875 -0.01525 -0.06258125 -0.04261875 -0.12155 -0.08065 -0.17354375 -0.0379625 -0.0519875 -0.08585 -0.0959875 -0.14084375 -0.12948125 -0.0549875 -0.0335 -0.1160375 -0.055825 -0.179725 -0.06571875 -0.063625 -0.0099 -0.12859375 -0.0071625 -0.191175 0.00805 -0.062525 0.0152125 -0.12149375 0.04259375 -0.17354375 0.0806 -0.05199375 0.03799375 -0.09595625 0.08586875 -0.12945625 0.140875l-0.48988125 0.8021875c-0.0335625 0.05495 -0.0559125 0.11598125 -0.06583125 0.1795875 -0.00991875 0.0636 -0.007225 0.1285375 0.0079625 0.19109375 0.01518125 0.0625625 0.04255625 0.1215125 0.080525 0.17348125 0.038025 0.05198125 0.08585 0.09595625 0.1408375 0.12943125ZM14.83375 3.441625c-0.0197125 -0.06130625 -0.051375 -0.11813125 -0.093075 -0.1672 -0.0417 -0.04906875 -0.0927125 -0.0894375 -0.150025 -0.1187875 -0.05731875 -0.02935 -0.1199 -0.0471 -0.184075 -0.05225 -0.0642375 -0.00514375 -0.12878125 0.002425 -0.19008125 0.0222625l-0.92220625 0.29699375c-0.1113875 0.03561875 -0.206425 0.109925 -0.2677875 0.2094875 -0.06141875 0.09955625 -0.085175 0.21780625 -0.06693125 0.33334375 0.0181875 0.11554375 0.0771 0.22076875 0.16613125 0.29663125 0.0890375 0.075875 0.2022625 0.1173875 0.319225 0.11704375 0.05113125 -0.0002 0.10195625 -0.00825 0.1506375 -0.0238875l0.9216 -0.29699375c0.06154375 -0.01965625 0.118675 -0.0513 0.1679125 -0.09311875 0.04929375 -0.0418125 0.08983125 -0.09296875 0.1192875 -0.15051875 0.02939375 -0.05755 0.04715 -0.12034375 0.05223125 -0.18478125 0.005025 -0.06444375 -0.00275625 -0.12924375 -0.0228375 -0.190675v0.00245Zm-1.62948125 2.6937625c0.5187875 0.90206875 0.73776875 1.9455875 0.62528125 2.9801 -0.11249375 1.03451875 -0.550575 2.006575 -1.2511125 2.77606875 -0.02081875 0.1059375 -0.0440875 0.211875 -0.07286875 0.3172 -0.2525375 0.936725 -0.777025 1.77755 -1.507075 2.416425 -0.7301125 0.638875 -1.6331 1.04713125 -2.59505 1.17321875 -0.96189375 0.12601875 -1.93964375 -0.0357625 -2.8096875 -0.4649625 -0.87005625 -0.42914375 -1.59344375 -1.1065375 -2.078825 -1.94650625l-2.1597875 -3.73538125c-0.1311875 -0.22725 -0.2041625 -0.48345625 -0.212425 -0.74573125 -0.008275 -0.262275 0.04841875 -0.522525 0.16501875 -0.75766875 0.1166 -0.2350875 0.28950625 -0.43765625 0.50333125 -0.589825 0.21381875 -0.1521125 0.461925 -0.24904375 0.72225 -0.2821125l-0.18370625 -0.318425c-0.1310125 -0.2270625 -0.20391875 -0.48303125 -0.21225625 -0.7450375 -0.008325 -0.2620375 0.048175 -0.522075 0.1645 -0.757025 0.11631875 -0.23494375 0.28885625 -0.43753125 0.50229375 -0.58976875 0.2134375 -0.1522375 0.46116875 -0.2494125 0.7211875 -0.28289375l-0.0428625 -0.07531875c-0.18160625 -0.31275625 -0.251325 -0.67801875 -0.197675 -1.035675 0.05365625 -0.35765625 0.22746875 -0.6863875 0.49285 -0.9320875 0.265375 -0.2457125 0.60649375 -0.39374375 0.96721875 -0.4197375 0.36071875 -0.026 0.71954375 0.07159375 1.0174125 0.2767 0.14375 -0.23676875 0.34665625 -0.4320375 0.58878125 -0.56660625 0.24206875 -0.13458125 0.51505625 -0.20381875 0.792025 -0.2009125 0.27696875 0.00290625 0.54843125 0.07785 0.78761875 0.21746875 0.23924375 0.13961875 0.43801875 0.33910625 0.576775 0.57883125l0.75075 1.2982c0.15964375 -0.20825 0.3682125 -0.37393125 0.60715625 -0.482375 0.239 -0.10844375 0.50096875 -0.1563 0.762875 -0.13934375 0.26184375 0.01694375 0.51554375 0.09819375 0.73850625 0.23654375 0.22295625 0.13835 0.4084375 0.3295375 0.5399125 0.55663125l1.2975875 2.24000625ZM6.5950875 3.52796875l1.5309 2.64355c0.127675 -0.16709375 0.28719375 -0.30724375 0.46936875 -0.41235 0.18211875 -0.10510625 0.383275 -0.17308125 0.59184375 -0.20000625l-1.52966875 -2.64355c-0.0812 -0.14089375 -0.2150625 -0.24375 -0.37206875 -0.28595625 -0.15706875 -0.0422 -0.32443125 -0.02029375 -0.46533125 0.0609125s-0.24378125 0.21505 -0.28596875 0.37209375c-0.04219375 0.1570375 -0.02026875 0.3244125 0.060925 0.46530625Zm-2.2626625 0.4898875 0.3955875 0.684c0.127725 -0.1669 0.287175 -0.306925 0.46919375 -0.41201875 0.1820125 -0.10508125 0.383 -0.17316875 0.59140625 -0.2003375l-0.39496875 -0.684c-0.0402125 -0.06968125 -0.09375 -0.1307625 -0.1575625 -0.17975 -0.0638125 -0.04899375 -0.13665 -0.08493125 -0.21435625 -0.10576875 -0.0777 -0.02084375 -0.15874375 -0.026175 -0.2385125 -0.01569375 -0.0797625 0.01048125 -0.156675 0.036575 -0.22635625 0.07678125 -0.06968125 0.04020625 -0.1307625 0.09374375 -0.17975 0.15755625 -0.0489875 0.06381875 -0.08493125 0.13665 -0.105775 0.21435625 -0.0208375 0.07770625 -0.02616875 0.15875 -0.0156875 0.2385125 0.01048125 0.0797625 0.03656875 0.15668125 0.07678125 0.2263625Zm6.83024375 4.9601 -1.2381875 -2.14325625c-0.0751375 -0.144025 -0.20440625 -0.25235 -0.35933125 -0.30109375 -0.1549875 -0.04874375 -0.32301875 -0.0339875 -0.46705 0.04115 -0.1440875 0.0751375 -0.25235 0.20440625 -0.30109375 0.35933125 -0.04880625 0.1549875 -0.0339875 0.32301875 0.04115 0.46704375l0.77156875 1.33188125c0.064975 0.1126125 0.08255 0.246475 0.04880625 0.37200625 -0.033675 0.12559375 -0.11591875 0.2326375 -0.22853125 0.29760625 -0.1126125 0.06496875 -0.246475 0.08254375 -0.37200625 0.04880625 -0.12559375 -0.03368125 -0.2326375 -0.11591875 -0.29760625 -0.22853125l-2.23510625 -3.85785625c-0.0812 -0.14089375 -0.2150625 -0.24375 -0.37206875 -0.28595 -0.15706875 -0.04220625 -0.32444375 -0.02029375 -0.46533125 0.06090625 -0.14089375 0.08120625 -0.24375 0.21505 -0.28595 0.37209375 -0.04220625 0.15704375 -0.02029375 0.32441875 0.06090625 0.46530625l1.59519375 2.7556125c0.064975 0.1126125 0.08255 0.246475 0.04880625 0.37200625 -0.03368125 0.12559375 -0.11591875 0.2326375 -0.22853125 0.29760625 -0.1126125 0.064975 -0.246475 0.08254375 -0.37200625 0.04880625 -0.12559375 -0.03368125 -0.2326375 -0.11591875 -0.29760625 -0.22853125L4.26384375 5.85493125c-0.08120625 -0.14073125 -0.2149875 -0.24343125 -0.37191875 -0.28551875 -0.156925 -0.0420875 -0.32414375 -0.02011875 -0.46486875 0.0610875s-0.24343125 0.2149875 -0.285525 0.3719125c-0.0420875 0.156925 -0.0201125 0.32415625 0.06109375 0.464875l2.156725 3.73538125c0.0649625 0.1128 0.08245625 0.24678125 0.0486375 0.3724375 -0.033825 0.12571875 -0.1161875 0.23281875 -0.228975 0.2977875 -0.1128 0.064975 -0.246775 0.0824875 -0.37246875 0.048625 -0.12569375 -0.03380625 -0.2328 -0.11616875 -0.29775625 -0.2289625l-1.2418625 -2.14325c-0.08120625 -0.14078125 -0.21501875 -0.2436 -0.37200625 -0.28573125 -0.1569875 -0.042125 -0.32428125 -0.02020625 -0.4650875 0.06099375 -0.1408125 0.0812 -0.2435875 0.215 -0.2857375 0.37200625 -0.04215 0.15700625 -0.02020625 0.32430625 0.061 0.4650875l2.1597875 3.73538125c0.38850625 0.6716375 0.9673125 1.21314375 1.6633375 1.556125 0.69601875 0.34291875 1.47805625 0.47200625 2.2473625 0.37084375 0.76930625 -0.1011625 1.4914 -0.427975 2.0751 -0.9392375s1.00285625 -1.18393125 1.20450625 -1.9332125c0.13465625 -0.4969875 0.16925625 -1.01571875 0.1019 -1.52618125 -0.067425 -0.51045625 -0.23545625 -1.002425 -0.49441875 -1.447425Zm1.1885875 -2.35268125 -1.294525 -2.24000625c-0.04023125 -0.06988125 -0.0938125 -0.1311625 -0.15768125 -0.18033125 -0.06386875 -0.04918125 -0.1368625 -0.08528125 -0.21469375 -0.10626875 -0.15719375 -0.042375 -0.32479375 -0.0205625 -0.46594375 0.06064375 -0.06986875 0.04020625 -0.13116875 0.0937875 -0.1803375 0.157675 -0.049175 0.0638875 -0.08530625 0.1368375 -0.10624375 0.2146875 -0.042375 0.1572125 -0.020575 0.324825 0.06061875 0.46595625l2.02078125 3.4935c0.28009375 0.483025 0.47580625 1.01026875 0.57868125 1.5590625 0.221425 -0.55191875 0.3148125 -1.1468875 0.2731125 -1.740075 -0.04170625 -0.59325625 -0.217325 -1.1693 -0.51376875 -1.68484375Z" stroke-width="0.0625"></path>
  </g>
</svg>