<svg viewBox="0 0 16 16" fill="none" xmlns="http://www.w3.org/2000/svg" id="Comment--Streamline-Unicons" height="16" width="16">
  <desc>
    Comment Streamline Icon: https://streamlinehq.com
  </desc>
  <path d="M8.011066666666666 0.17066666666666666c-1.0281333333333333 0 -2.0462 0.20253333333333334 -2.9960666666666667 0.596 -0.9498666666666666 0.39339999999999997 -1.8128666666666666 0.9700666666666666 -2.5398666666666667 1.6970666666666665C1.0069333333333332 3.9319333333333333 0.18206666666666665 5.923266666666667 0.18206666666666665 7.999666666666666c-0.006866666666666667 1.8077999999999999 0.6191333333333333 3.561 1.7693333333333332 4.955733333333333L0.3856 14.5212c-0.10859999999999999 0.11006666666666666 -0.18219999999999997 0.24986666666666668 -0.21146666666666664 0.40173333333333333 -0.029266666666666667 0.1519333333333333 -0.012866666666666667 0.30906666666666666 0.04706666666666666 0.4516 0.06506666666666666 0.14086666666666664 0.17046666666666666 0.2592 0.3028666666666666 0.34006666666666663 0.1324 0.08093333333333333 0.28586666666666666 0.12053333333333333 0.44086666666666663 0.114h7.046133333333334c2.0763999999999996 0 4.067666666666666 -0.8248666666666666 5.535933333333333 -2.2929999999999997 1.4681333333333333 -1.4682666666666666 2.2929999999999997 -3.4595333333333333 2.2929999999999997 -5.535933333333333 0 -2.0763999999999996 -0.8248666666666666 -4.067733333333333 -2.2929999999999997 -5.535933333333333C12.078733333333332 0.9955333333333334 10.087466666666666 0.17066666666666666 8.011066666666666 0.17066666666666666Zm0 14.092133333333333h-5.159333333333333l0.7281333333333333 -0.7280666666666666c0.14579999999999999 -0.14673333333333333 0.22759999999999997 -0.34506666666666663 0.22759999999999997 -0.5519333333333333s-0.0818 -0.4052 -0.22759999999999997 -0.5519333333333333c-1.0252 -1.0240666666666667 -1.663533333333333 -2.3718 -1.8064 -3.8136666666666668 -0.14286666666666664 -1.4419333333333333 0.21860000000000002 -2.888733333333333 1.0228666666666666 -4.093999999999999C3.6006 3.318 4.797866666666666 2.4288666666666665 6.184133333333333 2.0073333333333334c1.3862666666666668 -0.42146666666666666 2.8758 -0.34926666666666667 4.2148666666666665 0.2043333333333333 1.3390666666666666 0.5535333333333333 2.444733333333333 1.5543333333333333 3.1286666666666663 2.831666666666666 0.6839333333333333 1.2773999999999999 0.9037999999999999 2.7523999999999997 0.6221333333333333 4.173733333333333 -0.28159999999999996 1.4213333333333333 -1.0473333333333332 2.7009999999999996 -2.166733333333333 3.6210666666666667 -1.1193333333333333 0.9200666666666667 -2.523066666666667 1.4235333333333333 -3.972 1.4246666666666665Z" fill="#000000" stroke-width="0.6667"></path>
</svg>